<svg xmlns="http://www.w3.org/2000/svg" width="15.248" height="15.226" viewBox="0 0 15.248 15.226">
  <g id="Group_777" data-name="Group 777" transform="translate(-627.82 -505)">
    <path id="Subtraction_2" data-name="Subtraction 2" d="M-283.683-680.819h0v-1.312a6.552,6.552,0,0,0,1.851-.855l.861.99a7.619,7.619,0,0,1-2.711,1.178Zm-1.694-.614,0,0-4.234-4.234H-293v-5.082h3.388l.552-.552.874,1.005-.855.817h-2.689v2.542h2.689l2.393,2.308v-3.9l1.271,1.462v5.633Zm6.5-2.793h0l-.895-1.029a6.108,6.108,0,0,0,.745-2.974,6.191,6.191,0,0,0-1.292-3.833,6.219,6.219,0,0,0-3.368-2.266v-1.313a7.445,7.445,0,0,1,4.278,2.658,7.429,7.429,0,0,1,1.652,4.755,7.43,7.43,0,0,1-1.119,4Zm-5.233-.426h0v-.95l.608.7a3.65,3.65,0,0,1-.606.252Zm2.46-2.764v0l-2.459-2.829v-1.542a3.428,3.428,0,0,1,1.853,1.355,3.84,3.84,0,0,1,.688,2.223,3.894,3.894,0,0,1-.08.792Zm-3.731-4.292,0,0-1.523-1.752,1.524-1.524v3.278Z" transform="translate(920.82 1200.643)"/>
    <rect id="Rectangle_235" data-name="Rectangle 235" width="1.516" height="18" transform="translate(629.414 506.641) rotate(-41)"/>
  </g>
</svg>
