<svg id="volume_up_FILL0_wght400_GRAD0_opsz48" xmlns="http://www.w3.org/2000/svg" width="15.247" height="14.823" viewBox="0 0 15.247 14.823">
  <path id="volume_up_FILL0_wght400_GRAD0_opsz48-2" data-name="volume_up_FILL0_wght400_GRAD0_opsz48" d="M9.318,14.824V13.511a6.375,6.375,0,0,0,3.356-2.276,6.082,6.082,0,0,0,1.3-3.822,6.158,6.158,0,0,0-1.292-3.833A6.189,6.189,0,0,0,9.318,1.313V0a7.543,7.543,0,0,1,5.929,7.412,7.543,7.543,0,0,1-5.929,7.412ZM0,9.974V4.892H3.388L7.624.656V14.209L3.388,9.974Zm8.894,1.016V3.854a3.418,3.418,0,0,1,1.853,1.355,3.82,3.82,0,0,1,.688,2.224,3.747,3.747,0,0,1-.7,2.2A3.471,3.471,0,0,1,8.894,10.991ZM6.353,3.875,3.96,6.162H1.271V8.7H3.96l2.393,2.308ZM4.362,7.433Z" transform="translate(0)"/>
</svg>
