<svg xmlns="http://www.w3.org/2000/svg" width="16.676" height="14.823" viewBox="0 0 16.676 14.823">
  <g id="closed_caption_FILL0_wght400_GRAD0_opsz48" transform="translate(28.338 17.412)">
    <path id="closed_caption_FILL0_wght400_GRAD0_opsz48-2" data-name="closed_caption_FILL0_wght400_GRAD0_opsz48" d="M1.39,14.824a1.333,1.333,0,0,1-.973-.417A1.333,1.333,0,0,1,0,13.434V1.39A1.333,1.333,0,0,1,.417.417,1.333,1.333,0,0,1,1.39,0h13.9a1.333,1.333,0,0,1,.973.417,1.333,1.333,0,0,1,.417.973V13.434a1.425,1.425,0,0,1-1.39,1.39Zm0-1.39h13.9V1.39H1.39Zm2.085-3.266H6.763a.673.673,0,0,0,.695-.695V8.5H6.3v.51H3.937v-3.2H6.3v.51H7.458V5.35a.673.673,0,0,0-.695-.695H3.474a.673.673,0,0,0-.695.695V9.473a.673.673,0,0,0,.695.695Zm6.462,0h3.289a.712.712,0,0,0,.695-.695V8.5H12.762v.51H10.4v-3.2h2.362v.51H13.92V5.35a.712.712,0,0,0-.695-.695H9.936a.712.712,0,0,0-.695.695V9.473a.712.712,0,0,0,.695.695ZM1.39,13.434v0Z" transform="translate(-28.338 -17.412)" fill="#7213ea"/>
  </g>
</svg>
