<svg id="outline-lock-24px" xmlns="http://www.w3.org/2000/svg" width="18.092" height="18.092" viewBox="0 0 18.092 18.092">
  <g id="Bounding_Boxes">
    <path id="Path_2370" data-name="Path 2370" d="M0,0H18.092V18.092H0Z" fill="none"/>
    <path id="Path_2371" data-name="Path 2371" d="M0,0H18.092V18.092H0Z" fill="none" opacity="0.87"/>
  </g>
  <g id="Outline" transform="translate(3.015 0.754)">
    <path id="Subtraction_1" data-name="Subtraction 1" d="M-4599.37-190.831h-9.046a1.509,1.509,0,0,1-1.508-1.508v-7.538a1.509,1.509,0,0,1,1.508-1.508h.708l.018.021h1.562l.016-.021h4.48v-1.508a2.263,2.263,0,0,0-2.261-2.261,2.267,2.267,0,0,0-1.842.946l-1.63-.154a3.764,3.764,0,0,1,3.472-2.3,3.773,3.773,0,0,1,3.769,3.769v1.508h.754a1.509,1.509,0,0,1,1.508,1.508v7.538A1.509,1.509,0,0,1-4599.37-190.831Zm-9.046-9.046h0v7.538h9.046v-7.538Zm4.523,5.277a1.509,1.509,0,0,1-1.508-1.508,1.509,1.509,0,0,1,1.508-1.508,1.509,1.509,0,0,1,1.508,1.508A1.509,1.509,0,0,1-4603.893-194.6Z" transform="translate(4609.923 206.662)" fill="#fff"/>
  </g>
</svg>
