<?xml version="1.0" encoding="utf-8"?>
<svg version="1.1" id="Layer_1"
	xmlns="http://www.w3.org/2000/svg"
	xmlns:xlink="http://www.w3.org/1999/xlink" x="0px" y="0px" viewBox="0 0 40 40">
	<style> .fill-help {fill:#ffff;}</style>
	<path class="fill-help" d="M20,1C9.51,1,1,9.51,1,20s8.51,19,19,19c10.49,0,19-8.51,19-19S30.49,1,20,1z M21.15,29.67 c-0.43,0.39-0.94,0.58-1.51,0.58c-0.59,0-1.1-0.19-1.54-0.57c-0.44-0.38-0.66-0.91-0.66-1.6c0-0.61,0.21-1.12,0.64-1.54 c0.42-0.42,0.95-0.62,1.56-0.62c0.61,0,1.12,0.21,1.54,0.62c0.42,0.42,0.62,0.93,0.62,1.54C21.8,28.75,21.59,29.29,21.15,29.67z  M26.56,16.26c-0.33,0.62-0.73,1.15-1.19,1.6c-0.46,0.45-1.28,1.2-2.47,2.27c-0.33,0.3-0.59,0.56-0.79,0.79 c-0.2,0.23-0.35,0.43-0.44,0.62c-0.1,0.19-0.17,0.38-0.22,0.57c-0.05,0.19-0.13,0.52-0.24,0.99c-0.18,1-0.76,1.51-1.72,1.51 c-0.5,0-0.92-0.16-1.27-0.49c-0.34-0.33-0.51-0.82-0.51-1.46c0-0.81,0.13-1.51,0.38-2.11c0.25-0.59,0.58-1.12,1-1.56 c0.42-0.45,0.98-0.98,1.68-1.6c0.62-0.54,1.06-0.95,1.34-1.22c0.28-0.28,0.51-0.58,0.7-0.92c0.19-0.34,0.28-0.7,0.28-1.1 c0-0.77-0.29-1.42-0.86-1.96c-0.57-0.53-1.32-0.8-2.22-0.8c-1.06,0-1.84,0.27-2.35,0.8c-0.5,0.54-0.93,1.33-1.27,2.37 c-0.33,1.09-0.95,1.64-1.87,1.64c-0.54,0-1-0.19-1.37-0.57c-0.37-0.38-0.56-0.79-0.56-1.24c0-0.92,0.29-1.85,0.88-2.79 c0.59-0.94,1.45-1.72,2.58-2.34c1.13-0.62,2.45-0.93,3.95-0.93c1.4,0,2.64,0.26,3.71,0.77c1.07,0.52,1.9,1.22,2.48,2.11 c0.58,0.89,0.88,1.85,0.88,2.9C27.06,14.92,26.89,15.64,26.56,16.26z"/>
</svg>