<svg xmlns="http://www.w3.org/2000/svg" width="70" height="28.148" viewBox="0 0 70 28.148">
  <g id="KPMG_Logo" data-name="KPMG Logo" transform="translate(35 14.074)">
    <path id="Path_1" data-name="Path 1" d="M18.951,13.58V.556H4.568V12.839H8.025L6.172,19.012l5.741-6.173H16.6l-7.346,7.47.556,1.11h6.791Zm25.616,7.84,1.112-5.185L42.406,21.42Zm-18.826-4.2q.371-1.236.061-1.606-.309-.432-2.284-.431h-1.3l-1.111,4.2h1.851a2.829,2.829,0,0,0,2.783-2.16Zm7.716,4.2h1.6L35,16.05ZM35.8,12.778V.556H21.357V12.779h2.9q3.7,0,4.629,1.05a4.12,4.12,0,0,1,.494,3.457,5.178,5.178,0,0,1-3.518,4.136H29.69l2.469-8.641H35.8ZM58.519,25.186a10.576,10.576,0,0,0,2.406-.247l.741-2.963H54.938Q55,25.184,58.519,25.186Zm-7.84-5a11.54,11.54,0,0,1,1.913-4.136V.556H38.21V21.42h.371l5.494-8.641,6.048.061-1.79,8.579h2.1Zm3.765-6.111V0H70V21.975H65.679l-1.3,5.309a36.071,36.071,0,0,1-7.036.864q-3.643,0-5.372-1.6a5.592,5.592,0,0,1-1.6-4.568H48.21l-1.235,5.8H43.21l1.235-5.8H42.037l-3.7,5.8h-3.21l-.062-5.8H33.333l-1.6,5.8H27.84l1.728-5.8H20.247l-1.79,5.864H14.691l1.728-5.864H10.062l2.778,5.86H8.64l-2.9-5.864H5.247L3.518,27.84H0L4.013,14.63V0H19.506V12.839h1.3V0H36.358V12.778h1.3V0H53.21V15.309ZM55,13.642a11.642,11.642,0,0,1,6.42-1.666q3.887,0,5.186,1.79a3.8,3.8,0,0,1,.37,3.21H62.654q.185-2.039-2.16-2.038-4.075,0-5.309,5.124L55,20.927v.492h3.519l.617-2.406h7.283L65.8,21.42h3.643V.556H55Z" transform="translate(-35 -14.074)" fill="#fff" fill-rule="evenodd"/>
  </g>
</svg>
