<?xml version="1.0" encoding="iso-8859-1"?>
<!-- Generator: Adobe Illustrator 24.1.1, SVG Export Plug-In . SVG Version: 6.00 Build 0)  -->
<svg version="1.1"
	xmlns="http://www.w3.org/2000/svg"
	xmlns:xlink="http://www.w3.org/1999/xlink" x="0px" y="0px" viewBox="0 0 53 22" xml:space="preserve">
	<style>.logo-color{fill: #00338d;}</style>
	<g class="logo-color">
		<path d="M14.221,10.791V1.017H3.428v9.217H6.022l-1.39,4.632L8.94,10.234H12.46L6.948,15.84l.417.833h5.1Zm19.222,5.882.834-3.891-2.456,3.891ZM19.316,13.524q.278-.928.046-1.2Q19.13,12,17.647,12h-.973l-.834,3.15H17.23A2.123,2.123,0,0,0,19.316,13.524Zm5.79,3.149h1.2l-.047-4.029Zm1.76-6.485V1.017H16.026v9.172H18.2q2.779,0,3.474.788a3.092,3.092,0,0,1,.37,2.594,3.885,3.885,0,0,1-2.64,3.1h2.871l1.852-6.484h2.735ZM43.912,19.5a7.945,7.945,0,0,0,1.806-.185l.556-2.224H41.225Q41.27,19.5,43.912,19.5Zm-5.883-3.753a8.656,8.656,0,0,1,1.435-3.1V1.017H28.673V16.673h.278l4.123-6.484,4.539.046-1.343,6.438h1.574Zm2.825-4.586V.6H52.528V17.09H49.285l-.973,3.984a27.069,27.069,0,0,1-5.28.648A5.77,5.77,0,0,1,39,20.518a4.2,4.2,0,0,1-1.2-3.428H36.176l-.927,4.355H32.424l.927-4.355H31.545l-2.779,4.355H26.357L26.31,17.09h-1.3l-1.2,4.355H20.891l1.3-4.355H15.193l-1.343,4.4H11.024l1.3-4.4H7.551l2.085,4.4H6.485l-2.177-4.4H3.937l-1.3,4.4H0l3.011-9.913V.6H14.637v9.634h.973V.6H27.283v9.588h.973V.6H39.928V12.088Zm.417-.324a8.737,8.737,0,0,1,4.818-1.25q2.917,0,3.892,1.343a2.85,2.85,0,0,1,.277,2.409H47.015q.138-1.529-1.621-1.529-3.058,0-3.984,3.845l-.139.649v.37h2.641l.463-1.806h5.465l-.463,1.806h2.734V1.017H41.271Z"/>
	</g>
</svg>