<svg id="Group_785" data-name="Group 785" xmlns="http://www.w3.org/2000/svg" xmlns:xlink="http://www.w3.org/1999/xlink" width="22" height="22" viewBox="0 0 22 22">
  <defs>
    <clipPath id="clip-path">
      <rect id="Rectangle_247" data-name="Rectangle 247" width="22" height="22" fill="none"/>
    </clipPath>
  </defs>
  <g id="Group_784" data-name="Group 784" clip-path="url(#clip-path)">
    <path id="Path_2378" data-name="Path 2378" d="M4.362,8.117h2.9l-.021,9.674-2.877,0ZM21.97,17.738A4.327,4.327,0,0,1,17.729,22H4.321A4.414,4.414,0,0,1,.11,17.661C.09,14.143-.107,9.079.08,4.269A4.27,4.27,0,0,1,4.33.016C7.021.009,15.781-.011,17.729.007A4.246,4.246,0,0,1,21.97,4.269c.014,1.881.062,10.676,0,13.469M18,17.792H15.185c0-1.446.048-2.946.015-4.383-.028-1.241-.05-2.7-1.682-2.653-1.587.046-1.674,1.393-1.689,2.651-.018,1.459.02,2.924.02,4.384l-2.794,0V8.117h2.773l.005,1.089a3.2,3.2,0,0,1,1.68-1.014c2.731-.457,4.508.869,4.539,3.556-.015,1.959-.073,4.345-.052,6.044M5.8,3.714A1.73,1.73,0,1,1,4.08,5.443,1.737,1.737,0,0,1,5.8,3.714" transform="translate(0 0)" fill="#0077b5" fill-rule="evenodd"/>
    <path id="Path_2379" data-name="Path 2379" d="M42.761,48.837l2.8,0-.018-4.363c0-1.435.188-2.594,1.689-2.643,1.54-.05,1.687,1.252,1.687,2.643l-.014,4.364h2.82c-.025-1.986.06-4.019.052-6.012-.011-2.693-1.849-4.039-4.548-3.546A3.044,3.044,0,0,0,45.546,40.3l-.006-1.1-2.8.008Zm-1.818,0,.021-9.632H38.057c0,3.176,0,6.491,0,9.635ZM39.5,38.259a1.719,1.719,0,1,0-1.722-1.719A1.722,1.722,0,0,0,39.5,38.259" transform="translate(-33.71 -31.073)" fill="#fff" fill-rule="evenodd"/>
  </g>
</svg>
