<svg xmlns="http://www.w3.org/2000/svg" width="22.5" height="22.5" viewBox="0 0 22.5 22.5">
  <g id="help_FILL0_wght400_GRAD0_opsz48" transform="translate(20 19.5)">
    <path id="help_FILL0_wght400_GRAD0_opsz48-2" data-name="help_FILL0_wght400_GRAD0_opsz48" d="M11.25,22.5a10.885,10.885,0,0,1-4.359-.886,11.334,11.334,0,0,1-6-6A10.885,10.885,0,0,1,0,11.25,10.955,10.955,0,0,1,.886,6.863,11.243,11.243,0,0,1,3.3,3.291,11.532,11.532,0,0,1,6.891.886,10.885,10.885,0,0,1,11.25,0a10.955,10.955,0,0,1,4.387.886,11.232,11.232,0,0,1,5.977,5.977A10.955,10.955,0,0,1,22.5,11.25a10.885,10.885,0,0,1-.886,4.359,11.532,11.532,0,0,1-2.4,3.586,11.243,11.243,0,0,1-3.572,2.419A10.955,10.955,0,0,1,11.25,22.5Zm0-1.687a9.2,9.2,0,0,0,6.778-2.8,9.239,9.239,0,0,0,2.784-6.764,9.225,9.225,0,0,0-2.784-6.778A9.225,9.225,0,0,0,11.25,1.687,9.239,9.239,0,0,0,4.486,4.472a9.2,9.2,0,0,0-2.8,6.778,9.215,9.215,0,0,0,2.8,6.764A9.215,9.215,0,0,0,11.25,20.813Z" transform="translate(-20 -19.5)" fill="#fff"/>
    <text id="C" transform="translate(-14 -3.5)" fill="#fff" font-size="14" font-family="OpenSans, Open Sans"><tspan x="0" y="0">C</tspan></text>
  </g>
</svg>
