<svg xmlns="http://www.w3.org/2000/svg" width="22.5" height="22.5" viewBox="0 0 22.5 22.5">
  <g id="library_books_FILL0_wght400_GRAD0_opsz48" transform="translate(20 20)">
    <path id="library_books_FILL0_wght400_GRAD0_opsz48-2" data-name="library_books_FILL0_wght400_GRAD0_opsz48" d="M7.4,12.938h6.328V11.25H7.4Zm0-2.531H18.506V8.719H7.4Zm0-2.531H18.506V6.187H7.4ZM5.063,19.125a1.619,1.619,0,0,1-1.181-.506,1.619,1.619,0,0,1-.506-1.181V1.687A1.619,1.619,0,0,1,3.881.506,1.619,1.619,0,0,1,5.063,0h15.75a1.619,1.619,0,0,1,1.181.506A1.619,1.619,0,0,1,22.5,1.687v15.75a1.73,1.73,0,0,1-1.687,1.687Zm0-1.687h15.75V1.687H5.063ZM1.687,22.5a1.619,1.619,0,0,1-1.181-.506A1.619,1.619,0,0,1,0,20.813V3.375H1.687V20.813H19.125V22.5ZM5.063,1.687v0Z" transform="translate(-20 -20)" fill="#fff"/>
  </g>
</svg>
