<svg xmlns="http://www.w3.org/2000/svg" width="22.5" height="22.5" viewBox="0 0 22.5 22.5">
  <g id="help_FILL0_wght400_GRAD0_opsz48" transform="translate(20 20)">
    <path id="help_FILL0_wght400_GRAD0_opsz48-2" data-name="help_FILL0_wght400_GRAD0_opsz48" d="M11.363,17.8a1.057,1.057,0,1,0-.759-.309A1.032,1.032,0,0,0,11.363,17.8ZM10.378,13.7h1.659a4.6,4.6,0,0,1,.183-1.336,3.312,3.312,0,0,1,1.139-1.392A4.921,4.921,0,0,0,14.6,9.534a3.3,3.3,0,0,0,.366-1.547,3.105,3.105,0,0,0-.97-2.391,3.634,3.634,0,0,0-2.573-.9,4.347,4.347,0,0,0-2.433.689,3.935,3.935,0,0,0-1.533,1.9l1.491.562a2.624,2.624,0,0,1,.928-1.223,2.474,2.474,0,0,1,1.462-.436,2.254,2.254,0,0,1,1.547.52,1.7,1.7,0,0,1,.591,1.336,2.068,2.068,0,0,1-.366,1.167,5.6,5.6,0,0,1-1.069,1.139A5.72,5.72,0,0,0,10.786,11.8a3.828,3.828,0,0,0-.408,1.9Zm.872,8.8a10.885,10.885,0,0,1-4.359-.886,11.334,11.334,0,0,1-6-6A10.885,10.885,0,0,1,0,11.25,10.955,10.955,0,0,1,.886,6.863,11.243,11.243,0,0,1,3.3,3.291,11.532,11.532,0,0,1,6.891.886,10.885,10.885,0,0,1,11.25,0a10.955,10.955,0,0,1,4.387.886,11.232,11.232,0,0,1,5.977,5.977A10.955,10.955,0,0,1,22.5,11.25a10.885,10.885,0,0,1-.886,4.359,11.532,11.532,0,0,1-2.4,3.586,11.243,11.243,0,0,1-3.572,2.419A10.955,10.955,0,0,1,11.25,22.5Zm0-1.687a9.2,9.2,0,0,0,6.778-2.8,9.239,9.239,0,0,0,2.784-6.764,9.225,9.225,0,0,0-2.784-6.778A9.225,9.225,0,0,0,11.25,1.687,9.239,9.239,0,0,0,4.486,4.472a9.2,9.2,0,0,0-2.8,6.778,9.215,9.215,0,0,0,2.8,6.764A9.215,9.215,0,0,0,11.25,20.813ZM11.25,11.25Z" transform="translate(-20 -20)" fill="#fff"/>
  </g>
</svg>
